<svg width="390" height="202" viewBox="0 0 390 202" fill="none" xmlns="http://www.w3.org/2000/svg">
<g clip-path="url(#clip0_6063_37432)">
<path d="M317.148 148.771C313.361 117.717 320.719 92.1817 331.052 84.6617L331.485 84.3371L331.917 84.7158C343.116 94.6703 346.308 105.869 344.685 128.321" stroke="#D8D9D8" stroke-width="1.08201" stroke-linecap="round"/>
<path d="M332.945 200.166C331.376 171.98 335.758 135.137 352.8 116.364C359.346 109.115 367.245 105.274 376.226 104.949H376.658L376.875 105.328C383.421 119.232 376.009 134.704 366.596 154.343C360.212 167.652 353.016 182.746 348.743 200.382" stroke="#D8D9D8" stroke-width="1.08201" stroke-linecap="round"/>
<path d="M339.059 200.166C341.385 162.512 354.585 132.919 365.892 121.288" stroke="#D8D9D8" stroke-width="1.08201" stroke-linecap="round"/>
<path d="M317.148 200.545C314.335 189.616 310.223 180.365 306.598 172.196C301.243 160.132 296.59 149.69 298.7 138.924L298.808 138.275L299.457 138.383C328.455 143.739 329.753 183.449 328.996 200.274" stroke="#D8D9D8" stroke-width="1.08201" stroke-linecap="round"/>
<path d="M323.153 200.436C321.151 176.47 312.604 157.697 305.516 150.448" stroke="#D8D9D8" stroke-width="1.08201" stroke-linecap="round"/>
<path d="M332.621 190.482C332.513 183.178 332.026 173.224 331.539 162.62C330.457 138.654 329.212 111.495 330.944 100.729" stroke="#D8D9D8" stroke-width="1.08201" stroke-linecap="round"/>
<path d="M393.177 200.923H-3" stroke="#D8D9D8" stroke-width="1.08201" stroke-linecap="round"/>
<path d="M88.1414 125.237L87.4381 124.371C88.5201 123.452 89.6021 122.532 90.63 121.504L91.3874 122.261C90.3595 123.343 89.2775 124.317 88.1414 125.237Z" fill="#C6C6C5"/>
<path d="M188.011 166.732C189.85 166.732 191.365 168.247 191.365 170.086C191.365 171.926 189.85 173.44 188.011 173.44C186.171 173.44 184.656 171.926 184.656 170.086C184.656 168.193 186.171 166.732 188.011 166.732Z" stroke="#EC1E3C" stroke-width="1.08201" stroke-linecap="round"/>
<path d="M229.614 47.9276L277.06 47.8735C281.496 47.8735 285.067 51.4441 285.067 55.8803V161.863V171.547C285.067 175.983 281.496 179.554 277.06 179.554H204.89H171.077H98.9615C94.5253 179.554 90.9547 175.983 90.9547 171.547V161.863V55.8803C90.9547 51.4441 94.5253 47.8735 98.9615 47.8735H147.922L229.614 47.9276Z" stroke="#EC1E3C" stroke-width="1.08201" stroke-linecap="round"/>
<path d="M90.9547 161.863H284.039H284.796" stroke="#EC1E3C" stroke-width="1.08201" stroke-linecap="round"/>
<path d="M171.077 179.554V192.862C171.077 194.702 170.32 196.487 168.967 197.785L165.559 200.977" stroke="#EC1E3C" stroke-width="1.08201" stroke-linecap="round"/>
<path d="M204.89 179.554V192.862C204.89 194.702 205.647 196.487 207 197.785L210.408 200.977" stroke="#EC1E3C" stroke-width="1.08201" stroke-linecap="round"/>
<path d="M150.086 200.923H165.559H210.408H225.881" stroke="#EC1E3C" stroke-width="1.08201" stroke-linecap="round"/>
<path d="M191.311 170.032C191.311 171.871 189.796 173.386 187.957 173.386C186.117 173.386 184.602 171.871 184.602 170.032C184.602 168.193 186.117 166.678 187.957 166.678C189.85 166.732 191.311 168.193 191.311 170.032Z" stroke="#EC1E3C" stroke-width="1.08201" stroke-linecap="round"/>
<path d="M170.32 18.3347L159.554 26.0711C159.392 26.1793 159.229 26.2334 159.067 26.2334C158.905 26.2334 158.742 26.1793 158.58 26.0711C158.31 25.9088 158.147 25.5301 158.201 25.2055L160.96 12.1673L152.899 2.48332C152.683 2.21282 152.629 1.83412 152.791 1.50951C152.954 1.18491 153.332 1.02261 153.711 1.07671L182.925 7.51465C183.25 7.56875 183.52 7.83925 183.574 8.16385C183.628 8.48846 183.52 8.86716 183.25 9.02946L177.191 13.3575" stroke="#EC1E3C" stroke-width="1.08201" stroke-linecap="round"/>
<path d="M160.852 12.2214L173.62 9.94915" stroke="#EC1E3C" stroke-width="1.08201" stroke-linecap="round"/>
<path d="M147.976 15.9543L147.706 14.9264C149.112 14.6018 149.87 14.5477 149.924 14.5477L149.978 15.6297C150.032 15.5756 149.275 15.6297 147.976 15.9543Z" fill="#C6C6C5"/>
<path d="M132.612 23.2037L132.017 22.284C133.261 21.4725 134.505 20.661 135.696 19.9577L136.237 20.8774C135.046 21.6348 133.802 22.3922 132.612 23.2037ZM140.024 18.8757L139.537 17.9019C140.889 17.2527 142.242 16.6576 143.54 16.1707L143.919 17.1986C142.675 17.6855 141.322 18.2265 140.024 18.8757Z" fill="#C6C6C5"/>
<path d="M73.4261 132.919L73.1015 131.891C74.454 131.458 75.8065 130.917 77.1049 130.376L77.5377 131.35C76.1852 131.945 74.8327 132.432 73.4261 132.919Z" fill="#C6C6C5"/>
<path d="M65.0499 133.048L65.161 131.976C66.574 132.117 68.0301 132.159 69.4366 132.179L69.4463 133.245C67.9687 133.253 66.5341 133.161 65.0499 133.048Z" fill="#C6C6C5"/>
<path d="M81.433 129.457L80.9461 128.483C82.1904 127.834 83.4347 127.076 84.6249 126.265L85.22 127.185C83.9757 128.05 82.7314 128.808 81.433 129.457Z" fill="#C6C6C5"/>
<path d="M64.4995 85.906L64.4454 84.824C65.852 84.7699 67.2587 84.6076 68.6653 84.3371L68.8817 85.4191C67.421 85.6896 65.9602 85.8519 64.4995 85.906Z" fill="#C6C6C5"/>
<path d="M60.1175 85.7437C58.6567 85.5814 57.196 85.2568 55.7894 84.824L56.114 83.7961C57.4124 84.1748 58.819 84.4994 60.2257 84.6617L60.1175 85.7437Z" fill="#C6C6C5"/>
<path d="M73.1557 84.3371L72.8311 83.3092C74.1295 82.8764 75.482 82.3354 76.7804 81.7403L77.2673 82.7141C75.8607 83.3092 74.5082 83.8502 73.1557 84.3371Z" fill="#C6C6C5"/>
<path d="M51.7319 83.1469C50.3794 82.4436 49.1892 81.6321 48.0531 80.6583L48.7564 79.8468C49.7843 80.7124 50.9745 81.5239 52.2188 82.1731L51.7319 83.1469Z" fill="#C6C6C5"/>
<path d="M81.0002 80.5501L80.4051 79.6304C81.5953 78.873 82.7314 78.0615 83.8675 77.1418L84.5167 78.0074C83.4347 78.9271 82.2445 79.7927 81.0002 80.5501Z" fill="#C6C6C5"/>
<path d="M45.0235 77.4664C44.1579 76.2762 43.4005 74.9777 42.8595 73.5711L43.8874 73.1924C44.3743 74.4908 45.0776 75.7352 45.8891 76.8713L45.0235 77.4664Z" fill="#C6C6C5"/>
<path d="M87.8709 75.14L87.1135 74.3826C88.1414 73.4088 89.1152 72.3809 90.0349 71.2989L90.8465 72.0022C89.9267 73.0842 88.8988 74.1121 87.8709 75.14Z" fill="#C6C6C5"/>
<path d="M41.7774 69.2431C41.6692 68.3775 41.6151 67.5119 41.6151 66.6463C41.6151 66.0512 41.6151 65.4561 41.6692 64.8069L42.7512 64.9151C42.6971 65.5102 42.6971 66.0512 42.6971 66.6463C42.6971 67.4578 42.7512 68.3234 42.8594 69.1349L41.7774 69.2431Z" fill="#C6C6C5"/>
<path d="M93.5514 68.5398L92.6858 67.8906C93.4973 66.7545 94.3088 65.5643 95.0662 64.32L95.9859 64.9151C95.2285 66.1594 94.417 67.3496 93.5514 68.5398Z" fill="#C6C6C5"/>
<path d="M98.2582 61.2363L97.3385 60.6412C98.0959 59.3969 98.9074 58.2067 99.6648 57.0164L100.585 57.6115C99.8271 58.8018 99.0156 59.992 98.2582 61.2363Z" fill="#C6C6C5"/>
<path d="M43.5087 60.7494L42.4808 60.4789C42.6972 59.7215 42.9136 58.9641 43.1841 58.2607C43.4005 57.6115 43.671 56.9623 43.9956 56.3672L44.9694 56.8C44.6989 57.3951 44.4284 57.9902 44.212 58.6395C43.9415 59.3428 43.671 60.0461 43.5087 60.7494Z" fill="#C6C6C5"/>
<path d="M88.7365 56.259C87.6545 55.3393 86.5184 54.4737 85.3282 53.6622L85.9774 52.7966C87.1676 53.6622 88.3578 54.5278 89.4398 55.4475L88.7365 56.259Z" fill="#C6C6C5"/>
<path d="M103.019 54.0409L102.153 53.4458C102.965 52.2556 103.83 51.0654 104.642 49.9293L105.508 50.5785C104.696 51.6605 103.83 52.8507 103.019 54.0409Z" fill="#C6C6C5"/>
<path d="M47.0793 53.1753L46.2137 52.5261C47.0793 51.3359 48.1072 50.1998 49.2433 49.2801L49.9466 50.0916C48.8646 51.0113 47.8908 52.0392 47.0793 53.1753Z" fill="#C6C6C5"/>
<path d="M81.7576 51.3359C80.5133 50.6326 79.269 49.9293 77.9706 49.3883L78.4034 48.4145C79.7018 49.0096 81.0002 49.7129 82.2986 50.4162L81.7576 51.3359Z" fill="#C6C6C5"/>
<path d="M53.409 47.8194L52.9221 46.8456C54.2205 46.1964 55.6271 45.7095 57.0878 45.3308L57.3583 46.3587C55.9517 46.7374 54.6533 47.2243 53.409 47.8194Z" fill="#C6C6C5"/>
<path d="M74.0212 47.7653C72.6687 47.2784 71.2621 46.8997 69.9096 46.5751L70.1801 45.5472C71.5867 45.8718 72.9933 46.3046 74.3999 46.7915L74.0212 47.7653Z" fill="#C6C6C5"/>
<path d="M108.104 47.062L107.239 46.4128C108.159 45.2767 109.024 44.1406 109.944 43.0045L110.755 43.7078C109.89 44.7898 108.97 45.9259 108.104 47.062Z" fill="#C6C6C5"/>
<path d="M65.7439 45.8718C64.2832 45.7095 62.8766 45.7095 61.5241 45.7636L61.47 44.6816C62.8766 44.6275 64.3373 44.6275 65.8521 44.7898L65.7439 45.8718Z" fill="#C6C6C5"/>
<path d="M113.569 40.4076L112.757 39.7043C113.731 38.6223 114.705 37.5403 115.678 36.4583L116.49 37.2157C115.462 38.2436 114.488 39.3256 113.569 40.4076Z" fill="#C6C6C5"/>
<path d="M119.411 34.132L118.654 33.3746C119.682 32.3467 120.764 31.3188 121.792 30.3991L122.549 31.2106C121.467 32.1303 120.439 33.1041 119.411 34.132Z" fill="#C6C6C5"/>
<path d="M125.741 28.3433L125.038 27.5318C126.174 26.6121 127.31 25.6924 128.446 24.8268L129.095 25.6924C128.013 26.5039 126.877 27.4236 125.741 28.3433Z" fill="#C6C6C5"/>
<g opacity="0.2">
<path d="M143.756 121.72H121.305L120.223 111.82L140.781 83.4715H156.903V110.846H162.529V121.666H156.903V129.944H143.756V121.72ZM143.756 110.846V96.8884L133.748 110.846H143.756Z" fill="#EC1E3C"/>
<path d="M166.695 106.626C166.695 92.5063 175.784 82.5518 188.66 82.5518C201.536 82.5518 210.624 92.5063 210.624 106.626C210.624 120.801 201.536 130.755 188.66 130.755C175.784 130.755 166.695 120.801 166.695 106.626ZM197.045 106.626C197.045 99.4852 193.583 94.508 188.66 94.508C183.737 94.508 180.274 99.5393 180.274 106.626C180.274 113.768 183.737 118.853 188.66 118.853C193.583 118.853 197.045 113.768 197.045 106.626Z" fill="#EC1E3C"/>
<path d="M237.512 121.72H215.061L213.979 111.82L234.537 83.4715H250.659V110.846H256.285V121.666H250.659V129.944H237.512V121.72ZM237.512 110.846V96.8884L227.504 110.846H237.512Z" fill="#EC1E3C"/>
</g>
<path opacity="0.5" d="M54.3029 173.224C52.6799 171.114 50.3536 169.761 47.7568 169.383C46.783 169.275 45.8633 169.275 44.9436 169.437L45.1059 166.191H16.7573L18.2721 194.215C18.4885 197.948 21.5723 200.923 25.3593 200.923H36.5039C40.291 200.923 43.3747 198.002 43.5911 194.215L43.8616 188.859C44.2403 188.967 44.6731 189.075 45.0518 189.129C45.4846 189.184 45.9715 189.238 46.4043 189.238C51.3274 189.238 55.6014 185.559 56.2506 180.636C56.5752 177.931 55.8719 175.334 54.3029 173.224ZM54.0865 180.311C53.5455 184.477 49.6503 187.561 45.3223 186.965C44.8354 186.911 44.4026 186.803 43.9698 186.641L44.7813 171.655C45.6469 171.493 46.5666 171.439 47.4322 171.547C49.488 171.817 51.3274 172.899 52.5717 174.522C53.816 176.199 54.357 178.255 54.0865 180.311Z" fill="#9E65AA"/>
<g opacity="0.2">
<path d="M28.1725 159.753C27.7397 159.753 27.3069 159.537 27.0364 159.158C21.7887 152.125 23.4117 145.795 25.197 139.141C25.5757 137.788 25.9544 136.382 26.2249 134.921C27.9561 127.076 25.9544 118.474 21.41 114.525C20.9231 114.092 20.7608 113.389 21.0854 112.794C21.41 112.199 22.0592 111.874 22.7084 112.036C27.7397 113.118 31.8513 116.148 34.1777 120.53C36.8827 125.507 37.0991 131.945 34.881 137.68C33.9072 140.223 32.9875 142.279 32.1218 144.172C29.6873 149.636 28.3348 152.612 29.5791 158.022C29.7414 158.725 29.4168 159.374 28.7676 159.645C28.6053 159.699 28.3889 159.753 28.1725 159.753Z" fill="url(#paint0_linear_6063_37432)"/>
</g>
</g>
<defs>
<linearGradient id="paint0_linear_6063_37432" x1="28.6659" y1="108.977" x2="28.6659" y2="180.875" gradientUnits="userSpaceOnUse">
<stop stop-color="#EC1E3C"/>
<stop offset="1" stop-color="#F58121" stop-opacity="0"/>
</linearGradient>
<clipPath id="clip0_6063_37432">
<rect width="397.259" height="200.929" fill="white" transform="translate(-4 0.535713)"/>
</clipPath>
</defs>
</svg>
