<?xml version="1.0" encoding="UTF-8"?>
<svg xmlns="http://www.w3.org/2000/svg" width="23" height="34" viewBox="0 0 23 34" fill="none">
  <path d="M11.3347 16.9999C11.3347 13.8703 13.8716 11.3333 17.0012 11.3333C20.1307 11.3333 22.6678 13.8703 22.6678 16.9999C22.6678 20.1295 20.1307 22.6665 17.0012 22.6665C13.8716 22.6665 11.3347 20.1295 11.3347 16.9999Z" fill="#1ABCFE"></path>
  <path d="M0 28.3331C0 25.2036 2.53701 22.6665 5.66658 22.6665H11.3332V28.3331C11.3332 31.4628 8.79617 33.9998 5.66658 33.9998C2.53701 33.9998 0 31.4628 0 28.3331Z" fill="#0ACF83"></path>
  <path d="M11.3347 0V11.3332H17.0012C20.1308 11.3332 22.6678 8.79622 22.6678 5.66663C22.6678 2.53704 20.1308 0 17.0012 0H11.3347Z" fill="#FF7262"></path>
  <path d="M0 5.66664C0 8.79623 2.53701 11.3332 5.66658 11.3332H11.3332V0H5.66658C2.53701 0 0 2.53704 0 5.66664Z" fill="#F24E1E"></path>
  <path d="M0 16.9999C0 20.1295 2.53701 22.6665 5.66658 22.6665H11.3332V11.3333H5.66658C2.53701 11.3333 0 13.8703 0 16.9999Z" fill="#A259FF"></path>
</svg>
