<?xml version="1.0" encoding="UTF-8"?>
<svg xmlns="http://www.w3.org/2000/svg" width="56" height="34" viewBox="0 0 56 34" fill="none">
  <g clip-path="url(#clip0_60_554)">
    <path d="M5.51131 0.5H50.2805C53.1136 0.5 55.4073 2.80245 55.4073 5.64692V22.803C55.4073 25.6473 53.1138 27.95 50.2805 27.95H34.2258L36.4295 33.3676L26.7381 27.95H5.53408C2.70094 27.95 0.407268 25.6475 0.407268 22.803V5.64692C0.384783 2.8251 2.67817 0.5 5.51131 0.5Z" fill="#7F54B3"></path>
    <path d="M3.53865 5.19116C3.85165 4.76471 4.32117 4.54024 4.94718 4.49536C6.08742 4.40558 6.7358 4.94427 6.89231 6.11143C7.5854 10.8026 8.34556 14.7753 9.15054 18.03L14.0468 8.67033C14.494 7.8174 15.0529 7.36849 15.7237 7.32361C16.7074 7.25627 17.3111 7.88474 17.557 9.20903C18.1159 12.1943 18.8314 14.7306 19.681 16.8853C20.2623 11.1841 21.246 7.07676 22.6323 4.54028C22.9677 3.91182 23.4595 3.59758 24.1079 3.55268C24.6221 3.50779 25.0916 3.66491 25.5164 4.00159C25.9412 4.33827 26.1648 4.76473 26.2095 5.28097C26.2319 5.685 26.1648 6.02166 25.9859 6.35835C25.114 7.97442 24.3985 10.6904 23.8173 14.461C23.2584 18.1197 23.0571 20.9702 23.1913 23.0128C23.236 23.5739 23.1466 24.0677 22.923 24.4942C22.6547 24.988 22.2522 25.2573 21.738 25.3022C21.1567 25.3471 20.5531 25.0778 19.9718 24.4717C17.8925 22.3394 16.238 19.1523 15.0308 14.9099C13.5776 17.7829 12.5045 19.9378 11.8114 21.3743C10.4923 23.9105 9.3744 25.2124 8.43532 25.2797C7.83165 25.3246 7.31743 24.8083 6.87027 23.7309C5.73003 20.7905 4.50033 15.1119 3.18119 6.69497C3.09176 6.11139 3.22591 5.59514 3.5389 5.19112L3.53865 5.19116ZM51.5863 8.71504C50.7814 7.30098 49.5965 6.44797 48.0092 6.11128C47.5844 6.0215 47.1819 5.97661 46.8018 5.97661C44.6555 5.97661 42.9117 7.09889 41.5478 9.34347C40.3852 11.2513 39.8039 13.3613 39.8039 15.673C39.8039 17.4013 40.1616 18.8826 40.8771 20.1172C41.682 21.5313 42.8669 22.3843 44.4542 22.721C44.879 22.8108 45.2815 22.8557 45.6616 22.8557C47.8302 22.8557 49.5741 21.7334 50.9156 19.4888C52.0782 17.5585 52.6595 15.4486 52.6595 13.1368C52.6818 11.3861 52.3018 9.9272 51.5863 8.71504ZM48.7693 14.9324C48.4563 16.4138 47.8973 17.5135 47.0701 18.2544C46.4217 18.838 45.8181 19.0849 45.2591 18.9727C44.7225 18.8604 44.2754 18.3891 43.94 17.5137C43.6717 16.8179 43.5376 16.1221 43.5376 15.4712C43.5376 14.9101 43.5823 14.3489 43.6941 13.8327C43.8953 12.9124 44.2754 12.0146 44.879 11.1616C45.6168 10.0618 46.3993 9.6129 47.2043 9.77003C47.7409 9.88226 48.188 10.3536 48.5234 11.229C48.7917 11.9248 48.9258 12.6206 48.9258 13.2715C48.9258 13.8551 48.8811 14.4162 48.7693 14.9324ZM37.5903 8.71504C36.7854 7.30098 35.5781 6.44797 34.0132 6.11128C33.5884 6.0215 33.1859 5.97661 32.8058 5.97661C30.6595 5.97661 28.9157 7.09889 27.5518 9.34347C26.3892 11.2513 25.8079 13.3613 25.8079 15.673C25.8079 17.4013 26.1656 18.8826 26.8811 20.1172C27.686 21.5313 28.8709 22.3843 30.4582 22.721C30.883 22.8108 31.2855 22.8557 31.6656 22.8557C33.8342 22.8557 35.5781 21.7334 36.9196 19.4888C38.0822 17.5585 38.6635 15.4486 38.6635 13.1368C38.6635 11.3861 38.3058 9.9272 37.5903 8.71504ZM34.7509 14.9324C34.4379 16.4138 33.879 17.5135 33.0518 18.2544C32.4034 18.838 31.7997 19.0849 31.2408 18.9727C30.7042 18.8604 30.257 18.3891 29.9217 17.5137C29.6534 16.8179 29.5192 16.1221 29.5192 15.4712C29.5192 14.9101 29.5639 14.3489 29.6757 13.8327C29.8769 12.9124 30.257 12.0146 30.8607 11.1616C31.5985 10.0618 32.381 9.6129 33.1859 9.77003C33.7225 9.88226 34.1697 10.3536 34.505 11.229C34.7733 11.9248 34.9075 12.6206 34.9075 13.2715C34.9298 13.8551 34.8627 14.4162 34.7509 14.9324Z" fill="white"></path>
  </g>
  <defs>
    <clipPath id="clip0_60_554">
      <rect width="55" height="33" fill="white" transform="translate(0.406677 0.5)"></rect>
    </clipPath>
  </defs>
</svg>
