<?xml version="1.0" encoding="UTF-8"?>
<svg xmlns="http://www.w3.org/2000/svg" width="33" height="32" viewBox="0 0 33 32" fill="none">
  <g clip-path="url(#clip0_60_506)">
    <path d="M6.33448 0.5H27.0012C30.1345 0.5 32.6678 3.01709 32.6678 6.13034V25.8697C32.6678 28.9829 30.1345 31.5 27.0012 31.5H6.33448C3.20115 31.5 0.667816 28.9829 0.667816 25.8697V6.13034C0.667816 3.01709 3.20115 0.5 6.33448 0.5Z" fill="#00005B"></path>
    <path d="M13.5211 19.0469H8.56115L7.54782 22.1734C7.52115 22.2926 7.41448 22.3721 7.29448 22.3589H4.78782C4.64115 22.3589 4.60115 22.2794 4.64115 22.1204L8.93448 9.89262C8.97448 9.76014 9.01448 9.64091 9.06782 9.48194C9.12115 9.20373 9.14782 8.91228 9.14782 8.62082C9.13448 8.55458 9.18782 8.48835 9.25448 8.4751H9.29448H12.7078C12.8011 8.4751 12.8678 8.51484 12.8811 8.58108L17.7478 22.0939C17.7878 22.2396 17.7478 22.3059 17.6145 22.3059H14.8278C14.7345 22.3191 14.6411 22.2529 14.6145 22.1601L13.5211 18.9807V19.0469ZM9.33448 16.4106H12.7211C12.6411 16.1324 12.5345 15.8012 12.4145 15.4567C12.2945 15.099 12.1745 14.7148 12.0545 14.3174C11.9211 13.9067 11.8011 13.5093 11.6678 13.0986C11.5345 12.6879 11.4145 12.3037 11.3078 11.9195C11.2011 11.5486 11.1078 11.2042 11.0145 10.8862H10.9878C10.8678 11.4559 10.7211 12.0255 10.5345 12.5952C10.3345 13.2311 10.1345 13.8935 9.92115 14.5559C9.74782 15.2315 9.53448 15.8542 9.33448 16.4106Z" fill="#9999FF"></path>
    <path d="M25.6011 17.8546H21.3745C21.4278 18.2653 21.5611 18.676 21.7878 19.0337C22.0278 19.3914 22.3611 19.6696 22.7611 19.8286C23.2945 20.0538 23.8811 20.173 24.4678 20.1598C24.9345 20.1465 25.4011 20.1068 25.8545 20.014C26.2678 19.9611 26.6678 19.8551 27.0411 19.7093C27.1078 19.6564 27.1478 19.6829 27.1478 19.8153V21.8423C27.1478 21.8952 27.1345 21.9482 27.1211 22.0012C27.0945 22.041 27.0678 22.0675 27.0278 22.094C26.6011 22.2794 26.1611 22.4119 25.6945 22.4914C25.0678 22.6106 24.4411 22.6636 23.8011 22.6504C22.7878 22.6504 21.9345 22.4914 21.2411 22.1867C20.5878 21.9085 20.0145 21.4713 19.5611 20.9282C19.1345 20.4115 18.8278 19.8286 18.6411 19.1927C18.4545 18.57 18.3611 17.9209 18.3611 17.2585C18.3611 16.5431 18.4678 15.841 18.6945 15.1521C18.9078 14.4897 19.2411 13.8803 19.6945 13.3371C20.1345 12.8072 20.6811 12.3833 21.3078 12.0786C21.9345 11.7739 22.6811 11.6679 23.5345 11.6679C24.2411 11.6546 24.9478 11.7871 25.6011 12.0786C26.1478 12.317 26.6278 12.6747 27.0011 13.1384C27.3478 13.5888 27.6278 14.0923 27.8011 14.6487C27.9745 15.1786 28.0545 15.7217 28.0545 16.2649C28.0545 16.5829 28.0411 16.8611 28.0278 17.1128C28.0011 17.3645 27.9878 17.5499 27.9745 17.6692C27.9611 17.7619 27.8811 17.8414 27.7878 17.8414C27.7078 17.8414 27.5611 17.8546 27.3478 17.8679C27.1345 17.8944 26.8811 17.9076 26.5745 17.9076C26.2678 17.9076 25.9478 17.8546 25.6011 17.8546ZM21.3745 15.9205H24.1878C24.5345 15.9205 24.7878 15.9205 24.9478 15.9072C25.0545 15.894 25.1611 15.8675 25.2545 15.8012V15.6687C25.2545 15.4965 25.2278 15.3376 25.1745 15.1786C24.9345 14.4367 24.2278 13.9333 23.4411 13.9598C22.7078 13.92 22.0145 14.3042 21.6678 14.9666C21.5078 15.2713 21.4145 15.5893 21.3745 15.9205Z" fill="#9999FF"></path>
  </g>
  <defs>
    <clipPath id="clip0_60_506">
      <rect width="32" height="31" fill="white" transform="translate(0.667816 0.5)"></rect>
    </clipPath>
  </defs>
</svg>
