<?xml version="1.0" encoding="UTF-8"?>
<svg xmlns="http://www.w3.org/2000/svg" width="61" height="36" viewBox="0 0 61 36" fill="none">
  <mask id="mask0_60_557" style="mask-type:luminance" maskUnits="userSpaceOnUse" x="1" y="2" width="59" height="32">
    <path d="M1.6076 17.9998C1.6076 26.5133 14.5121 33.415 30.4299 33.415C46.3477 33.415 59.2523 26.5133 59.2523 17.9998C59.2523 9.48642 46.3477 2.58461 30.4299 2.58461C14.5121 2.58461 1.6076 9.48642 1.6076 17.9998Z" fill="white"></path>
  </mask>
  <g mask="url(#mask0_60_557)">
    <path d="M1.6076 17.9998C1.6076 26.5133 14.5121 33.415 30.4299 33.415C46.3477 33.415 59.2523 26.5133 59.2523 17.9998C59.2523 9.48642 46.3477 2.58461 30.4299 2.58461C14.5121 2.58461 1.6076 9.48642 1.6076 17.9998Z" fill="url(#paint0_radial_60_557)"></path>
  </g>
  <mask id="mask1_60_557" style="mask-type:luminance" maskUnits="userSpaceOnUse" x="0" y="0" width="61" height="36">
    <path d="M0.406677 0.829353H60.4531V35.1704H0.406677V0.829353Z" fill="white"></path>
  </mask>
  <g mask="url(#mask1_60_557)">
    <path d="M30.4297 32.2708C45.7258 32.2708 58.1262 25.8815 58.1262 18C58.1262 10.1186 45.7258 3.7293 30.4297 3.7293C15.1337 3.7293 2.73334 10.1186 2.73334 18C2.73334 25.8815 15.1337 32.2708 30.4297 32.2708Z" fill="#777BB3"></path>
  </g>
  <mask id="mask2_60_557" style="mask-type:luminance" maskUnits="userSpaceOnUse" x="0" y="0" width="61" height="36">
    <path d="M0.406677 0.829353H60.4531V35.1704H0.406677V0.829353Z" fill="white"></path>
  </mask>
  <g mask="url(#mask2_60_557)">
    <path d="M17.2671 19.7693C18.5249 19.7693 19.4638 19.5335 20.0579 19.0686C20.6457 18.6085 21.0516 17.8113 21.2644 16.6994C21.4628 15.66 21.3872 14.9343 21.0398 14.5427C20.6846 14.1427 19.9168 13.9398 18.7575 13.9398H16.7475L15.6332 19.7693H17.2671ZM10.693 26.9502C10.5997 26.9502 10.5111 26.9078 10.4517 26.8345C10.3923 26.7612 10.3682 26.6648 10.3861 26.5716L13.3392 11.1233C13.3677 10.974 13.4965 10.8661 13.6462 10.8661H20.0109C22.0112 10.8661 23.5001 11.4183 24.4359 12.5076C25.3767 13.6025 25.6673 15.1332 25.2994 17.0568C25.1497 17.8405 24.8922 18.5683 24.5341 19.22C24.1756 19.8723 23.7018 20.476 23.1256 21.0144C22.4359 21.6707 21.6553 22.1466 20.8076 22.4266C19.9733 22.7029 18.9018 22.843 17.623 22.843H15.0458L14.3098 26.6928C14.2813 26.8423 14.1526 26.9502 14.0029 26.9502H10.693Z" fill="black"></path>
    <path d="M17.0054 14.2577H18.7576C20.1567 14.2577 20.6427 14.5698 20.8078 14.7558C21.0817 15.0647 21.1335 15.7159 20.9574 16.639C20.7595 17.6724 20.3928 18.4051 19.8672 18.8166C19.329 19.2378 18.4542 19.4512 17.2671 19.4512H16.0126L17.0054 14.2577ZM20.0109 10.548H13.6461C13.3467 10.548 13.0893 10.7638 13.0322 11.0626L10.0791 26.5109C10.0434 26.6973 10.0916 26.8901 10.2103 27.0367C10.3292 27.1833 10.5062 27.2681 10.693 27.2681H14.0028C14.3023 27.2681 14.5597 27.0523 14.6169 26.7535L15.3036 23.1609H17.623C18.9347 23.1609 20.0389 23.0155 20.9046 22.7288C21.795 22.4347 22.6142 21.936 23.3392 21.2466C23.9388 20.6857 24.4328 20.0561 24.807 19.3751C25.1814 18.6939 25.4503 17.9343 25.6064 17.1173C25.9937 15.0925 25.679 13.471 24.6714 12.2983C23.6735 11.1369 22.1055 10.548 20.0109 10.548ZM15.2538 20.0872H17.2671C18.6016 20.0872 19.5956 19.8316 20.2487 19.3204C20.9019 18.8091 21.3425 17.9558 21.5714 16.76C21.7904 15.6119 21.6907 14.8017 21.2721 14.3298C20.853 13.8578 20.015 13.6217 18.7576 13.6217H16.4898L15.2538 20.0872ZM20.0109 11.1839C21.9256 11.1839 23.3224 11.6948 24.2004 12.7167C25.0783 13.7385 25.3426 15.1649 24.9924 16.9961C24.8482 17.7504 24.6044 18.4401 24.2611 19.0649C23.9174 19.6901 23.4686 20.2619 22.914 20.7803C22.2531 21.4091 21.5189 21.8572 20.7109 22.1241C19.903 22.3917 18.874 22.525 17.623 22.525H14.7879L14.0028 26.6321H10.693L13.6461 11.1839H20.0109Z" fill="white"></path>
    <path d="M32.8884 22.843C32.795 22.843 32.7065 22.8006 32.6472 22.7273C32.5876 22.654 32.5635 22.5577 32.5814 22.4644L33.8877 15.6292C34.012 14.9791 33.9813 14.5126 33.8015 14.3154C33.6914 14.1949 33.3607 13.9928 32.383 13.9928H30.0164L28.374 22.5857C28.3454 22.7351 28.2166 22.843 28.0669 22.843H24.7832C24.6898 22.843 24.6012 22.8006 24.5418 22.7273C24.4824 22.654 24.4583 22.5576 24.4761 22.4644L27.4293 7.01614C27.4578 6.8668 27.5866 6.7589 27.7363 6.7589H31.0201C31.1135 6.7589 31.202 6.80129 31.2614 6.87453C31.3208 6.94788 31.3449 7.04423 31.3271 7.1375L30.6144 10.866H33.1604C35.0999 10.866 36.4151 11.2137 37.1811 11.9289C37.9619 12.6586 38.2055 13.8252 37.9053 15.3968L36.5313 22.5857C36.5027 22.7351 36.3741 22.843 36.2243 22.843H32.8884Z" fill="black"></path>
    <path d="M31.0201 6.44082H27.7363C27.4368 6.44082 27.1794 6.65662 27.1223 6.95541L24.1692 22.4037C24.1335 22.5901 24.1817 22.7829 24.3005 22.9295C24.4194 23.0761 24.5964 23.1609 24.7832 23.1609H28.067C28.3664 23.1609 28.6239 22.9451 28.681 22.6463L30.2742 14.3106H32.383C33.3591 14.3106 33.5639 14.5226 33.5722 14.5317C33.6314 14.5965 33.7092 14.8965 33.5807 15.5684L32.2744 22.4037C32.2387 22.5901 32.2869 22.7829 32.4057 22.9295C32.5246 23.0761 32.7016 23.1609 32.8884 23.1609H36.2243C36.5237 23.1609 36.7812 22.9451 36.8383 22.6463L38.2122 15.4575C38.5346 13.77 38.2588 12.5041 37.3927 11.6948C36.5662 10.9231 35.1818 10.548 33.1604 10.548H30.9937L31.6341 7.19813C31.6696 7.01169 31.6216 6.81879 31.5027 6.67231C31.3839 6.52572 31.2069 6.44082 31.0201 6.44082ZM31.0201 7.07677L30.235 11.1839H33.1604C35.0011 11.1839 36.2707 11.5106 36.9695 12.1631C37.6682 12.816 37.8776 13.8739 37.5983 15.3362L36.2243 22.5249H32.8884L34.1947 15.6898C34.3434 14.9123 34.2888 14.3819 34.0306 14.0991C33.7724 13.8163 33.2231 13.6747 32.383 13.6747H29.7585L28.067 22.5249H24.7832L27.7363 7.07677H31.0201Z" fill="white"></path>
    <path d="M43.1012 19.7693C44.3589 19.7693 45.2979 19.5335 45.892 19.0686C46.4798 18.6086 46.8857 17.8114 47.0986 16.6994C47.297 15.66 47.2214 14.9343 46.8739 14.5427C46.5187 14.1427 45.7509 13.9398 44.5916 13.9398H42.5816L41.4673 19.7693H43.1012ZM36.5272 26.9502C36.4339 26.9502 36.3453 26.9078 36.2859 26.8345C36.2265 26.7612 36.2023 26.6648 36.2202 26.5716L39.1733 11.1233C39.2019 10.974 39.3306 10.8661 39.4804 10.8661H45.845C47.8454 10.8661 49.3342 11.4183 50.2701 12.5076C51.2109 13.6024 51.5013 15.1331 51.1336 17.0568C50.9837 17.8405 50.7263 18.5683 50.3682 19.22C50.0097 19.8723 49.5359 20.476 48.9597 21.0144C48.27 21.6707 47.4894 22.1466 46.6417 22.4266C45.8074 22.7029 44.7359 22.843 43.4571 22.843H40.8798L40.1441 26.6928C40.1155 26.8423 39.9868 26.9502 39.837 26.9502H36.5272Z" fill="black"></path>
    <path d="M42.8394 14.2577H44.5916C45.9907 14.2577 46.4767 14.5698 46.6418 14.7558C46.9158 15.0647 46.9676 15.7159 46.7914 16.6389C46.5935 17.6724 46.2267 18.4051 45.7012 18.8166C45.163 19.2378 44.2882 19.4512 43.1011 19.4512H41.8467L42.8394 14.2577ZM45.8449 10.548H39.4802C39.1808 10.548 38.9234 10.7638 38.8663 11.0626L35.9132 26.5109C35.8775 26.6973 35.9257 26.8901 36.0444 27.0367C36.1633 27.1833 36.3403 27.2681 36.5271 27.2681H39.8369C40.1363 27.2681 40.3938 27.0523 40.451 26.7535L41.1376 23.1609H43.457C44.7687 23.1609 45.8729 23.0155 46.7386 22.7288C47.629 22.4347 48.4484 21.9359 49.1734 21.2464C49.7731 20.6856 50.2668 20.0561 50.641 19.3751C51.0154 18.6939 51.2843 17.9343 51.4404 17.1173C51.8277 15.0924 51.5131 13.4709 50.5054 12.2982C49.5075 11.1369 47.9396 10.548 45.8449 10.548ZM41.0879 20.0872H43.1011C44.4356 20.0872 45.4296 19.8316 46.0827 19.3204C46.736 18.8091 47.1765 17.9558 47.4054 16.76C47.6245 15.6119 47.5248 14.8017 47.1061 14.3298C46.687 13.8578 45.849 13.6217 44.5916 13.6217H42.3238L41.0879 20.0872ZM45.8449 11.1839C47.7596 11.1839 49.1564 11.6948 50.0344 12.7167C50.9124 13.7385 51.1766 15.1649 50.8264 16.9961C50.6822 17.7504 50.4384 18.4401 50.0951 19.0649C49.7514 19.6901 49.3026 20.2619 48.748 20.7803C48.0871 21.4091 47.3529 21.8572 46.5449 22.1241C45.737 22.3917 44.708 22.525 43.457 22.525H40.6219L39.8369 26.6321H36.5271L39.4802 11.1839H45.8449Z" fill="white"></path>
  </g>
  <defs>
    <radialGradient id="paint0_radial_60_557" cx="0" cy="0" r="1" gradientUnits="userSpaceOnUse" gradientTransform="translate(18.9127 8.00412) scale(37.8478 38.4808)">
      <stop stop-color="#AEB2D5"></stop>
      <stop offset="0.3" stop-color="#AEB2D5"></stop>
      <stop offset="0.75" stop-color="#484C89"></stop>
      <stop offset="1" stop-color="#484C89"></stop>
    </radialGradient>
  </defs>
</svg>
