<?xml version="1.0" encoding="UTF-8"?>
<svg xmlns="http://www.w3.org/2000/svg" width="36" height="36" viewBox="0 0 36 36" fill="none">
  <g clip-path="url(#clip0_60_528)">
    <path fill-rule="evenodd" clip-rule="evenodd" d="M18.1157 0.5C8.46746 0.5 0.667816 8.52083 0.667816 18.4437C0.667816 26.3756 5.66532 33.0897 12.5982 35.4661C13.465 35.6447 13.7825 35.08 13.7825 34.6049C13.7825 34.189 13.7539 32.7631 13.7539 31.2774C8.90032 32.3471 7.8896 29.1384 7.8896 29.1384C7.1096 27.0588 5.95389 26.5243 5.95389 26.5243C4.36532 25.4251 6.0696 25.4251 6.0696 25.4251C7.83174 25.544 8.75639 27.267 8.75639 27.267C10.316 29.9999 12.8292 29.2277 13.8403 28.7523C13.9846 27.5936 14.4471 26.7916 14.9382 26.346C11.0671 25.93 6.99424 24.3853 6.99424 17.4929C6.99424 15.5321 7.6871 13.928 8.78496 12.6804C8.61174 12.2348 8.00496 10.3926 8.95853 7.92693C8.95853 7.92693 10.4317 7.45151 13.7535 9.7688C15.1757 9.37602 16.6424 9.17621 18.1157 9.17453C19.5889 9.17453 21.0907 9.38271 22.4775 9.7688C25.7996 7.45151 27.2728 7.92693 27.2728 7.92693C28.2264 10.3926 27.6192 12.2348 27.446 12.6804C28.5728 13.928 29.2371 15.5321 29.2371 17.4929C29.2371 24.3853 25.1642 25.9002 21.2642 26.346C21.9 26.9104 22.4485 27.9797 22.4485 29.6732C22.4485 32.0795 22.42 34.0107 22.42 34.6046C22.42 35.08 22.7378 35.6447 23.6042 35.4665C30.5371 33.0894 35.5346 26.3756 35.5346 18.4437C35.5632 8.52083 27.735 0.5 18.1157 0.5Z" fill="#24292F"></path>
  </g>
  <defs>
    <clipPath id="clip0_60_528">
      <rect width="35" height="35" fill="white" transform="translate(0.667816 0.5)"></rect>
    </clipPath>
  </defs>
</svg>
