<?xml version="1.0" encoding="UTF-8"?>
<svg xmlns="http://www.w3.org/2000/svg" width="44" height="38" viewBox="0 0 44 38" fill="none">
  <path d="M25.8676 18.9652C25.8676 16.9016 24.1423 15.2285 22.0137 15.2285C19.8854 15.2285 18.1598 16.9016 18.1598 18.9652C18.1598 21.029 19.8854 22.702 22.0137 22.702C24.1423 22.702 25.8676 21.029 25.8676 18.9652Z" fill="#53C1DE"></path>
  <path fill-rule="evenodd" clip-rule="evenodd" d="M34.5305 12.0279C35.3443 8.82136 36.3673 2.87511 32.761 0.859142C29.1715 -1.14804 24.5004 2.69809 22.0339 5.00671C19.5746 2.72109 14.7723 -1.10859 11.1691 0.913781C7.58096 2.92769 8.68745 8.77535 9.51934 12.002C6.17226 12.9238 0.434601 14.9091 0.434601 18.9652C0.434601 23.0099 6.16629 25.1699 9.49356 26.0907C8.65859 29.3353 7.6075 35.0994 11.2002 37.1088C14.8169 39.1308 19.6042 35.3923 22.0936 33.0584C24.5759 35.3806 29.2021 39.1436 32.7923 37.1285C36.3938 35.1071 35.4558 29.2406 34.6238 25.9952C37.8492 25.0723 43.5932 22.9594 43.5932 18.9652C43.5932 14.948 37.8248 12.9466 34.5305 12.0279ZM34.1216 24.2753C33.5754 22.5988 32.8381 20.8159 31.9362 18.9742C32.7971 17.1759 33.5058 15.416 34.0367 13.7502C36.4518 14.4291 41.7496 15.9807 41.7496 18.9652C41.7496 21.9779 36.6657 23.5441 34.1216 24.2753ZM31.8685 35.5815C29.1897 37.0848 25.2107 33.4862 23.3774 31.7762C24.5936 30.4864 25.809 28.9871 26.9951 27.3222C29.0817 27.1428 31.0528 26.8493 32.8404 26.4487C33.4259 28.7443 34.559 34.0713 31.8685 35.5815ZM12.1214 35.56C9.44242 34.0623 10.6669 28.9186 11.2812 26.5286C13.0489 26.9079 15.0058 27.1806 17.0973 27.3451C18.2912 28.9742 19.5418 30.4716 20.802 31.7831C19.245 33.2434 14.8129 37.0647 12.1214 35.56ZM2.27818 18.9652C2.27818 15.9414 7.54436 14.4011 10.0144 13.7239C10.5546 15.4271 11.263 17.208 12.118 19.0088C11.2519 20.8365 10.5334 22.6455 9.98826 24.3688C7.63301 23.7151 2.27818 21.991 2.27818 18.9652ZM12.0927 2.46087C14.7827 0.951214 18.9564 4.62785 20.742 6.2827C19.4883 7.58812 18.2492 9.0743 17.0655 10.694C15.0357 10.8765 13.0927 11.1694 11.3064 11.5618C10.6362 8.95937 9.40572 3.96891 12.0927 2.46087ZM28.3141 12.637C29.6911 12.8055 31.0105 13.0296 32.2493 13.3038C31.8774 14.4596 31.4139 15.6682 30.8679 16.9072C30.0765 15.4513 29.227 14.0246 28.3141 12.637ZM22.0345 7.56015C22.8848 8.45335 23.7365 9.45078 24.5744 10.5329C22.8749 10.4549 21.1727 10.4547 19.4733 10.5318C20.3119 9.45967 21.1709 8.46372 22.0345 7.56015ZM13.1757 16.9059C12.6388 15.6712 12.1795 14.4573 11.8043 13.285C13.0357 13.0178 14.3489 12.7995 15.7171 12.6337C14.8015 14.0183 13.9535 15.4444 13.1757 16.9059ZM15.7563 25.4244C14.343 25.2714 13.01 25.0641 11.7789 24.8043C12.16 23.6114 12.6295 22.3713 13.1778 21.1101C13.9663 22.5868 14.8273 24.0267 15.7563 25.4244ZM22.0856 30.4967C21.2117 29.5824 20.3401 28.5712 19.4888 27.4836C21.1979 27.5486 22.9103 27.5488 24.6193 27.4748C23.7788 28.5823 22.9302 29.5949 22.0856 30.4967ZM30.8854 21.0459C31.4623 22.3208 31.9486 23.5542 32.3349 24.7269C31.0834 25.0039 29.7324 25.2268 28.3089 25.3924C29.2286 23.9785 30.0916 22.5297 30.8854 21.0459ZM25.9662 25.6091C23.352 25.7902 20.7215 25.7882 18.1063 25.6239C16.6204 23.5193 15.2976 21.306 14.1557 19.0083C15.2921 16.7152 16.6053 14.5062 18.0842 12.405C20.7012 12.2132 23.3343 12.2126 25.9513 12.4061C27.4175 14.5072 28.7287 16.7105 29.8914 18.9828C28.7425 21.2747 27.4224 23.4881 25.9662 25.6091ZM31.8401 2.40773C34.5308 3.91244 33.3331 9.25651 32.7453 11.5804C30.9548 11.1797 29.0103 10.8816 26.9747 10.6963C25.7887 9.05911 24.56 7.57034 23.3265 6.28178C25.135 4.59128 29.1755 0.917737 31.8401 2.40773Z" fill="#53C1DE"></path>
</svg>
