<?xml version="1.0" encoding="UTF-8"?>
<svg xmlns="http://www.w3.org/2000/svg" width="36" height="40" viewBox="0 0 36 40" fill="none">
  <rect x="5.08188" y="5.11035" width="25.6677" height="28.6581" fill="white"></rect>
  <path fill-rule="evenodd" clip-rule="evenodd" d="M28.483 12.2H28.4691H11.668L12.0697 16.1H28.0832C27.8485 19.5164 27.1385 26.7545 26.8779 30.048L17.8836 32.5798V32.5874L17.8637 32.5969L8.86346 29.4301L8.24686 21.95H12.6585L12.9708 25.9728L17.8717 27.8H17.8836L22.7766 26.0452L23.2798 20H8.04995C7.97636 19.2181 7.02959 9.0644 6.8645 8.3H28.8768C28.7535 9.587 28.6282 10.9091 28.483 12.2ZM0.334595 0.5L3.52894 35.8885L17.8637 39.5L32.2363 35.8161L35.4346 0.5H0.334595Z" fill="#F16529"></path>
</svg>
