<?xml version="1.0" encoding="UTF-8"?>
<svg xmlns="http://www.w3.org/2000/svg" width="36" height="40" viewBox="0 0 36 40" fill="none">
  <rect x="4.68286" y="5.11035" width="25.6677" height="28.6581" fill="white"></rect>
  <rect x="4.68286" y="5.11035" width="25.6677" height="28.6581" fill="white"></rect>
  <path d="M35.3346 0.5L32.0841 35.7081L18.001 39.5L3.91765 35.7081L0.667816 0.5H35.3346ZM28.7846 7.65901H17.9883H7.00072L7.5262 11.9107H17.9883H18.576L17.9883 12.1553L7.90857 16.3534L8.24285 20.5094L17.9883 20.541L23.2116 20.5575L22.8772 26.0989L17.9882 27.4754V27.471L17.9482 27.4822L13.2266 26.2902L12.9401 22.8504H12.9245H8.54501H8.52959L9.10284 29.4909L17.9884 32.1186V32.1139L18.0044 32.1186L26.8423 29.5388L27.9888 16.3534H17.9884H17.9637L17.9884 16.3428L28.3551 11.9107L28.7846 7.65901Z" fill="#33AADD"></path>
  <path d="M35.3346 0.5L32.0841 35.7081L18.001 39.5L3.91765 35.7081L0.667816 0.5H35.3346ZM28.7846 7.65901H17.9883H7.00072L7.5262 11.9107H17.9883H18.576L17.9883 12.1553L7.90857 16.3534L8.24285 20.5094L17.9883 20.541L23.2116 20.5575L22.8772 26.0989L17.9882 27.4754V27.471L17.9482 27.4822L13.2266 26.2902L12.9401 22.8504H12.9245H8.54501H8.52959L9.10284 29.4909L17.9884 32.1186V32.1139L18.0044 32.1186L26.8423 29.5388L27.9888 16.3534H17.9884H17.9637L17.9884 16.3428L28.3551 11.9107L28.7846 7.65901Z" fill="#33AADD"></path>
</svg>
