<?xml version="1.0" encoding="UTF-8"?>
<svg xmlns="http://www.w3.org/2000/svg" width="38" height="38" viewBox="0 0 38 38" fill="none">
  <mask id="mask0_60_547" style="mask-type:alpha" maskUnits="userSpaceOnUse" x="0" y="0" width="38" height="38">
    <path d="M18.9999 37.4067C29.1657 37.4067 37.4067 29.1658 37.4067 19C37.4067 8.83424 29.1657 0.593262 18.9999 0.593262C8.83418 0.593262 0.593201 8.83424 0.593201 19C0.593201 29.1658 8.83418 37.4067 18.9999 37.4067Z" fill="black"></path>
  </mask>
  <g mask="url(#mask0_60_547)">
    <path d="M18.9999 37.4067C29.1657 37.4067 37.4067 29.1658 37.4067 19C37.4067 8.83424 29.1657 0.593262 18.9999 0.593262C8.83418 0.593262 0.593201 8.83424 0.593201 19C0.593201 29.1658 8.83418 37.4067 18.9999 37.4067Z" fill="black"></path>
    <path d="M31.1705 32.809L14.7341 11.6372H11.6373V26.3565H14.1147V14.7834L29.2257 34.3072C29.9076 33.8509 30.5571 33.35 31.1705 32.809Z" fill="url(#paint0_linear_60_547)"></path>
    <path d="M26.5673 11.6372H24.113V26.3626H26.5673V11.6372Z" fill="url(#paint1_linear_60_547)"></path>
  </g>
  <defs>
    <linearGradient id="paint0_linear_60_547" x1="22.8858" y1="24.4197" x2="30.1463" y2="33.4185" gradientUnits="userSpaceOnUse">
      <stop stop-color="white"></stop>
      <stop offset="1" stop-color="white" stop-opacity="0"></stop>
    </linearGradient>
    <linearGradient id="paint1_linear_60_547" x1="25.3402" y1="11.6372" x2="25.299" y2="22.4512" gradientUnits="userSpaceOnUse">
      <stop stop-color="white"></stop>
      <stop offset="1" stop-color="white" stop-opacity="0"></stop>
    </linearGradient>
  </defs>
</svg>
