<?xml version="1.0" encoding="UTF-8"?>
<svg xmlns="http://www.w3.org/2000/svg" width="40" height="40" viewBox="0 0 40 40" fill="none">
  <path d="M20.1678 0.5C9.39825 0.5 0.667816 9.23042 0.667816 20C0.667816 30.7695 9.39825 39.5 20.1678 39.5C30.9374 39.5 39.6678 30.7695 39.6678 20C39.6678 9.23042 30.9374 0.5 20.1678 0.5ZM20.1678 1.67C22.6429 1.67 25.0433 2.1545 27.3023 3.10998C28.3882 3.56926 29.4356 4.13782 30.4155 4.79975C31.3864 5.45565 32.2993 6.20895 33.1291 7.03872C33.9589 7.86848 34.7122 8.78149 35.3681 9.7523C36.0301 10.7322 36.5986 11.7796 37.0578 12.8655C38.0134 15.1245 38.4978 17.525 38.4978 20C38.4978 22.475 38.0134 24.8754 37.0578 27.1345C36.5986 28.2203 36.0301 29.2678 35.3681 30.2476C34.7122 31.2185 33.9589 32.1315 33.1291 32.9612C32.2993 33.791 31.3864 34.5443 30.4155 35.2002C29.4356 35.8622 28.3882 36.4307 27.3023 36.89C25.0433 37.8455 22.6429 38.33 20.1678 38.33C17.6928 38.33 15.2924 37.8455 13.0333 36.89C11.9474 36.4307 10.9 35.8622 9.92013 35.2002C8.94932 34.5443 8.03631 33.791 7.20654 32.9612C6.37678 32.1315 5.62347 31.2185 4.96757 30.2476C4.30564 29.2678 3.73708 28.2203 3.2778 27.1345C2.32232 24.8754 1.83782 22.475 1.83782 20C1.83782 17.525 2.32232 15.1245 3.2778 12.8655C3.73708 11.7796 4.30564 10.7322 4.96757 9.7523C5.62347 8.78149 6.37678 7.86848 7.20654 7.03872C8.03631 6.20895 8.94932 5.45565 9.92013 4.79975C10.9 4.13782 11.9474 3.56926 13.0333 3.10998C15.2924 2.1545 17.6928 1.67 20.1678 1.67Z" fill="#32373C"></path>
  <path d="M34.4269 12.2039C34.4967 12.7214 34.5361 13.2766 34.5361 13.8747C34.5361 15.5231 34.2273 17.3768 33.3001 19.6949L28.337 34.0448C33.1681 31.2282 36.417 25.9943 36.417 19.9995C36.417 17.1743 35.695 14.5182 34.4269 12.2039ZM20.4525 21.4208L15.5761 35.5879C17.0324 36.0164 18.572 36.25 20.167 36.25C22.0593 36.25 23.8747 35.9234 25.5636 35.3287C25.5201 35.2592 25.48 35.1854 25.447 35.1048L20.4525 21.4208ZM31.1371 19.1799C31.1371 17.171 30.4155 15.7806 29.7975 14.6985C28.9737 13.3594 28.2012 12.2264 28.2012 10.8873C28.2012 9.39376 29.3338 8.00333 30.9301 8.00333C31.0022 8.00333 31.0705 8.01199 31.1405 8.01643C28.2494 5.36744 24.3975 3.75009 20.167 3.75009C14.4896 3.75009 9.49535 6.6631 6.58965 11.0741C6.97119 11.0862 7.33067 11.0938 7.63545 11.0938C9.33476 11.0938 11.9665 10.8873 11.9665 10.8873C12.842 10.836 12.9455 12.1229 12.0704 12.2264C12.0704 12.2264 11.1898 12.3295 10.2107 12.3808L16.128 29.9825L19.6847 19.3173L17.1531 12.3808C16.2776 12.3295 15.4487 12.2264 15.4487 12.2264C14.5727 12.1747 14.6754 10.836 15.5518 10.8873C15.5518 10.8873 18.2348 11.0938 19.8314 11.0938C21.5307 11.0938 24.1629 10.8873 24.1629 10.8873C25.0389 10.836 25.1419 12.1229 24.2664 12.2264C24.2664 12.2264 23.385 12.3295 22.4067 12.3808L28.2793 29.8484L29.9557 24.5365C30.7004 22.2151 31.1371 20.5704 31.1371 19.1799ZM3.91696 19.9995C3.91696 26.4312 7.65453 31.9901 13.0757 34.6238L5.32406 13.3863C4.4224 15.4071 3.91696 17.6435 3.91696 19.9995Z" fill="#32373C"></path>
</svg>
