<svg width="72" height="72" viewBox="0 0 72 72" fill="none" xmlns="http://www.w3.org/2000/svg">
<g clip-path="url(#clip0_404_159)">
<path d="M36 72C45.5478 72 54.7045 68.2072 61.4558 61.4558C68.2072 54.7045 72 45.5478 72 36C72 26.4522 68.2072 17.2955 61.4558 10.5442C54.7045 3.79285 45.5478 0 36 0C26.4522 0 17.2955 3.79285 10.5442 10.5442C3.79285 17.2955 0 26.4522 0 36C0 45.5478 3.79285 54.7045 10.5442 61.4558C17.2955 68.2072 26.4522 72 36 72ZM36 18C37.8703 18 39.375 19.5047 39.375 21.375V37.125C39.375 38.9953 37.8703 40.5 36 40.5C34.1297 40.5 32.625 38.9953 32.625 37.125V21.375C32.625 19.5047 34.1297 18 36 18ZM31.5 49.5C31.5 48.3065 31.9741 47.1619 32.818 46.318C33.6619 45.4741 34.8065 45 36 45C37.1935 45 38.3381 45.4741 39.182 46.318C40.0259 47.1619 40.5 48.3065 40.5 49.5C40.5 50.6935 40.0259 51.8381 39.182 52.682C38.3381 53.5259 37.1935 54 36 54C34.8065 54 33.6619 53.5259 32.818 52.682C31.9741 51.8381 31.5 50.6935 31.5 49.5Z" fill="#EF394E"/>
</g>
<defs>
<clipPath id="clip0_404_159">
<rect width="72" height="72" fill="white"/>
</clipPath>
</defs>
</svg>
